<svg xmlns="http://www.w3.org/2000/svg" xmlns:xlink="http://www.w3.org/1999/xlink" xmlns:inkscape="http://www.inkscape.org/namespaces/inkscape" version="1.1" width="612" height="575.908" viewBox="0 0 612 575.908">
<defs>
<clipPath id="clip_1">
<path transform="matrix(1,0,0,-1,0,575.908)" d="M0 575.908H612V0H0Z"/>
</clipPath>
</defs>
<g inkscape:groupmode="layer" inkscape:label="Capa 1">
<g clip-path="url(#clip_1)">
<path transform="matrix(1,0,0,-1,306,521.089)" d="M0 0C-130.66 0-236.583 105.923-236.583 236.583-236.583 367.244-130.66 473.167 0 473.167 130.66 473.167 236.583 367.244 236.583 236.583 236.583 105.923 130.66 0 0 0M173.445 410.029C127.116 456.358 65.517 481.874 0 481.874-65.517 481.874-127.116 456.358-173.445 410.029-219.775 363.699-245.291 302.101-245.291 236.583-245.291 171.066-219.775 109.467-173.445 63.138-127.116 16.809-65.517-8.708 0-8.708 65.517-8.708 127.116 16.809 173.445 63.138 219.775 109.467 245.291 171.066 245.291 236.583 245.291 302.101 219.775 363.699 173.445 410.029" fill="#e52d16"/>
<path transform="matrix(1,0,0,-1,445.2702,181.5877)" d="M0 0C.294-.405 .589-.803 .883-1.208 1.177-1.613 1.466-2.011 1.754-2.416 2.778-3.845 3.784-5.292 4.759-6.758 5.022-7.144 5.28-7.537 5.537-7.929 5.961-8.567 6.371-9.205 6.782-9.848 7.316-10.689 7.849-11.529 8.371-12.381 8.431-12.476 8.491-12.575 8.552-12.674 7.97-11.727 7.384-10.783 6.782-9.848 7.443-10.879 8.09-11.921 8.73-12.968 8.828-13.128 8.925-13.289 9.022-13.45 9.054-13.502 9.085-13.553 9.116-13.605 9.731-14.623 10.34-15.645 10.934-16.674 10.417-15.771 9.883-14.88 9.348-13.989 9.492-14.228 9.639-14.465 9.781-14.705 9.83-14.785 9.879-14.865 9.928-14.944 10.265-15.521 10.603-16.097 10.934-16.674 11.7-18.004 12.449-19.347 13.178-20.696 13.724-21.69 14.258-22.696 14.773-23.707 15.429-24.977 16.073-26.265 16.704-27.552 17.244-28.668 17.771-29.797 18.292-30.925 18.569-31.532 18.851-32.145 19.12-32.759 19.39-33.372 19.66-33.985 19.93-34.604 20.457-35.837 20.979-37.076 21.481-38.327 21.733-38.952 21.978-39.578 22.223-40.203 22.469-40.829 22.714-41.46 22.947-42.092 23.315-43.067 23.677-44.048 24.02-45.029 24.186-45.489 24.351-45.955 24.511-46.421 24.848-47.39 25.173-48.365 25.492-49.346 25.59-49.641 25.688-49.941 25.78-50.236 26.068-51.125 26.344-52.02 26.614-52.915 26.743-53.326 26.866-53.737 26.982-54.148 27.479-55.828 27.945-57.515 28.386-59.213 28.607-60.053 28.822-60.9 29.03-61.752 29.202-62.451 29.367-63.144 29.527-63.843 30.097-66.302 30.612-68.773 31.072-71.269 31.127-71.533 31.177-71.803 31.219-72.073 31.299-72.484 31.373-72.901 31.44-73.318 31.514-73.728 31.581-74.145 31.649-74.562 32.035-76.886 32.372-79.229 32.661-81.584 32.71-81.958 32.752-82.332 32.795-82.712 32.851-83.111 32.893-83.515 32.936-83.92 32.992-84.429 33.047-84.932 33.096-85.435 33.127-85.741 33.157-86.048 33.188-86.361 33.292-87.44 33.384-88.519 33.464-89.605 33.513-90.2 33.556-90.794 33.593-91.389 33.635-92.039 33.678-92.695 33.709-93.352 33.746-93.977 33.776-94.609 33.801-95.234 33.819-95.529 33.832-95.823 33.838-96.117 33.856-96.448 33.869-96.78 33.875-97.117 33.887-97.448 33.899-97.785 33.905-98.123 33.918-98.423 33.924-98.717 33.93-99.018 33.942-99.515 33.948-100.011 33.954-100.514 33.967-101.311 33.973-102.115 33.973-102.918 33.973-105.285 33.924-107.64 33.826-109.982 33.832-109.995 33.832-110.001 33.826-110.013 33.807-110.553 33.783-111.092 33.752-111.626 33.703-112.699 33.642-113.766 33.568-114.833 33.482-116.072 33.384-117.31 33.274-118.543 33.225-119.064 33.182-119.579 33.127-120.095 33.09-120.469 33.053-120.837 33.01-121.204 32.955-121.732 32.9-122.259 32.838-122.787 32.777-123.332 32.71-123.878 32.642-124.424 32.605-124.761 32.562-125.092 32.513-125.423 32.458-125.877 32.397-126.331 32.329-126.785 32.256-127.331 32.176-127.87 32.096-128.41 31.949-129.44 31.79-130.47 31.618-131.494 31.41-132.733 31.189-133.966 30.956-135.198 30.766-136.204 30.569-137.21 30.355-138.209 30.195-139 30.024-139.791 29.846-140.582 29.631-141.564 29.404-142.539 29.165-143.514 29.024-144.109 28.883-144.697 28.73-145.286 28.607-145.789 28.478-146.292 28.343-146.794 27.454-150.179 26.473-153.528 25.388-156.827 25.001-157.998 24.609-159.163 24.198-160.322 23.787-161.481 23.37-162.634 22.935-163.781 22.738-164.308 22.536-164.836 22.328-165.363 22.285-165.486 22.242-165.602 22.193-165.719 22.009-166.197 21.819-166.675 21.629-167.154 21.389-167.742 21.15-168.325 20.911-168.907 20.457-170.017 19.985-171.127 19.501-172.225 19.488-172.243 19.482-172.262 19.476-172.28 18.986-173.402 18.483-174.512 17.968-175.622 17.066-177.554 16.134-179.473 15.165-181.368 14.926-181.84 14.681-182.313 14.435-182.785 14.202-183.239 13.963-183.692 13.718-184.146 13.497-184.563 13.27-184.98 13.043-185.397 12.835-185.79 12.62-186.182 12.406-186.568 11.553-188.101 10.682-189.622 9.781-191.131 9.327-191.897 8.867-192.664 8.395-193.424 7.892-194.246 7.383-195.062 6.862-195.871 6.721-196.092 6.58-196.319 6.433-196.539 5.82-197.49 5.2-198.44 4.562-199.379 4.139-200.004 3.716-200.63 3.287-201.249 1.999-203.113 .674-204.953-.687-206.762-1.778-208.209-2.888-209.638-4.017-211.055-4.397-211.521-4.777-211.993-5.157-212.459-5.537-212.925-5.924-213.391-6.31-213.851-6.611-214.207-6.905-214.562-7.205-214.918-9.247-217.322-11.351-219.664-13.522-221.958-13.939-222.393-14.356-222.829-14.773-223.264-16.024-224.558-17.305-225.84-18.599-227.103-19.464-227.943-20.341-228.771-21.218-229.592-22.978-231.236-24.78-232.843-26.608-234.419-27.528-235.203-28.448-235.976-29.38-236.743-29.846-237.129-30.312-237.509-30.784-237.883-31.722-238.644-32.673-239.392-33.623-240.128-34.88-241.097-36.156-242.053-37.444-242.991-38.002-243.396-38.566-243.801-39.13-244.2-39.731-244.629-40.332-245.052-40.939-245.469-42.448-246.518-43.981-247.542-45.526-248.541-47.537-249.841-49.573-251.098-51.64-252.313-52.161-252.619-52.689-252.926-53.216-253.226-53.676-253.496-54.142-253.76-54.608-254.017-56.258-254.949-57.919-255.851-59.606-256.728-60.685-257.286-61.77-257.838-62.862-258.377-63.714-258.795-64.569-259.208-65.429-259.615-64.57-259.208-63.713-258.8-62.862-258.377-63.834-258.855-64.812-259.322-65.793-259.784-66.09-259.924-66.387-260.061-66.684-260.199-67.614-260.631-68.546-261.059-69.485-261.474-68.706-261.132-67.935-260.776-67.162-260.421-67.381-260.522-67.598-260.626-67.817-260.726-68.369-260.977-68.927-261.229-69.485-261.474-70.779-262.045-72.09-262.596-73.401-263.138-73.979-263.377-74.557-263.616-75.138-263.849-75.287-263.908-75.435-263.968-75.584-264.026-75.644-264.05-75.704-264.073-75.764-264.096-75.773-264.099-75.78-264.102-75.789-264.105-75.794-264.108-75.799-264.109-75.805-264.112-76.156-264.251-76.509-264.385-76.861-264.521-76.867-264.523-76.873-264.526-76.88-264.528-76.885-264.53-76.89-264.532-76.894-264.534-77.262-264.676-77.63-264.822-77.999-264.962-78.167-265.025-78.333-265.09-78.501-265.153-78.779-265.258-79.06-265.357-79.338-265.46-79.367-265.47-79.396-265.48-79.425-265.491-79.554-265.534-79.683-265.583-79.812-265.632L-80.149-265.754C-80.327-265.822-80.511-265.883-80.689-265.951-80.897-266.03-81.099-266.104-81.308-266.178-81.351-266.195-81.394-266.21-81.438-266.225-81.635-266.295-81.833-266.362-82.031-266.431-82.562-266.618-83.095-266.801-83.628-266.982-83.767-267.029-83.905-267.077-84.043-267.122-84.08-267.134-84.11-267.147-84.147-267.159-84.153-267.159-84.159-267.165-84.172-267.165-84.221-267.18-84.267-267.198-84.314-267.215-84.616-267.316-84.918-267.416-85.221-267.515-85.762-267.693-86.303-267.869-86.846-268.041-87.259-268.172-87.672-268.303-88.086-268.431-88.653-268.606-89.222-268.778-89.791-268.948-90.152-269.055-90.512-269.164-90.874-269.27-90.884-269.272-90.894-269.275-90.904-269.278-91.838-269.55-92.773-269.816-93.714-270.072-6.776-207.817-9.99-107.382-9.99-107.382V12.271C-8.242 10.315-6.543 8.315-4.881 6.286-3.207 4.225-1.582 2.128 0 0M-73.906-263.357C-74.159-263.46-74.415-263.559-74.669-263.661-74.323-263.522-73.979-263.38-73.635-263.238-73.724-263.274-73.811-263.314-73.9-263.351-73.906-263.351-73.906-263.357-73.906-263.357M-186.397-269.642C-187.077-269.452-187.758-269.256-188.433-269.054-189.61-268.704-190.775-268.348-191.94-267.974-194.271-267.226-196.576-266.435-198.864-265.595-199.373-265.411-199.882-265.221-200.391-265.025-203.291-263.927-206.161-262.756-208.988-261.505-209.54-261.26-210.092-261.014-210.644-260.763-212.575-259.892-214.483-258.978-216.371-258.034-217.058-257.697-217.739-257.347-218.419-256.998-218.542-256.936-218.665-256.869-218.787-256.808-219.437-256.47-220.081-256.133-220.725-255.783-222.209-254.992-223.675-254.183-225.128-253.349-226.171-252.748-227.207-252.141-228.237-251.521-228.611-251.301-228.985-251.074-229.359-250.841-229.734-250.614-230.108-250.387-230.476-250.154-231.267-249.663-232.045-249.173-232.824-248.67-233.474-248.259-234.112-247.836-234.75-247.413-234.811-247.37-234.872-247.327-234.934-247.284-235.479-246.922-236.025-246.554-236.571-246.18-237.092-245.825-237.613-245.469-238.135-245.107-238.521-244.843-238.901-244.574-239.288-244.298-239.882-243.875-240.471-243.451-241.06-243.022-241.759-242.513-242.452-242.004-243.145-241.483-243.874-240.931-244.598-240.379-245.316-239.821-245.849-239.41-246.383-238.993-246.91-238.564-247.278-238.282-247.64-237.988-248.002-237.693-248.596-237.215-249.191-236.73-249.774-236.24-250.528-235.614-251.276-234.983-252.018-234.345-252.521-233.922-253.018-233.486-253.508-233.051-253.889-232.72-254.269-232.383-254.643-232.045-255.09-231.647-255.538-231.248-255.98-230.837-256.654-230.218-257.329-229.599-257.997-228.967-258.236-228.746-258.475-228.519-258.715-228.292-258.751-228.249-258.794-228.213-258.831-228.176-259.279-227.753-259.72-227.324-260.162-226.888-260.683-226.385-261.198-225.876-261.713-225.361-262.204-224.877-262.688-224.38-263.173-223.883-263.222-223.834-263.271-223.785-263.32-223.736-263.872-223.172-264.418-222.602-264.957-222.025-265.325-221.645-265.687-221.259-266.043-220.872-266.282-220.615-266.521-220.363-266.754-220.106-266.987-219.854-267.226-219.597-267.453-219.339-267.889-218.861-268.324-218.377-268.753-217.892-269.17-217.426-269.581-216.96-269.986-216.494-270.078-216.39-270.176-216.279-270.262-216.175-270.703-215.666-271.139-215.157-271.568-214.648-271.942-214.213-272.304-213.777-272.665-213.336-272.801-213.176-272.935-213.017-273.064-212.857-273.328-212.545-273.585-212.226-273.843-211.907-273.966-211.748-274.094-211.594-274.217-211.441-274.652-210.901-275.088-210.356-275.517-209.81-275.977-209.221-276.437-208.632-276.891-208.038-277.277-207.535-277.663-207.026-278.044-206.511-278.945-205.309-279.828-204.094-280.693-202.874-281.036-202.396-281.373-201.917-281.705-201.433-282.238-200.666-282.759-199.9-283.274-199.133-283.673-198.539-284.065-197.944-284.452-197.349-284.716-196.95-284.973-196.552-285.231-196.147-285.592-195.589-285.948-195.025-286.298-194.461-286.488-194.166-286.672-193.872-286.85-193.571-287.242-192.94-287.628-192.302-288.008-191.664-288.192-191.358-288.376-191.051-288.554-190.744-288.738-190.438-288.916-190.131-289.094-189.825-289.278-189.512-289.456-189.205-289.634-188.893-289.793-188.623-289.946-188.347-290.1-188.077-290.179-187.936-290.259-187.801-290.333-187.666-290.412-187.531-290.486-187.396-290.56-187.261-291.001-186.47-291.436-185.679-291.866-184.882-292.356-183.974-292.835-183.067-293.301-182.153-293.491-181.791-293.681-181.43-293.865-181.062-294.539-179.737-295.19-178.406-295.827-177.07-296.146-176.395-296.465-175.72-296.778-175.046-298.041-172.299-299.231-169.508-300.353-166.694-300.574-166.13-300.8-165.565-301.015-164.995-301.138-164.676-301.26-164.363-301.377-164.045-301.542-163.609-301.708-163.174-301.867-162.732-302.076-162.174-302.278-161.616-302.475-161.058-302.714-160.396-302.941-159.74-303.168-159.084-303.315-158.66-303.456-158.237-303.597-157.814-303.781-157.268-303.959-156.716-304.136-156.165-304.308-155.656-304.474-155.147-304.627-154.638-304.78-154.159-304.927-153.681-305.069-153.203-305.118-153.049-305.167-152.896-305.21-152.749-305.32-152.381-305.43-152.019-305.528-151.651-305.731-150.995-305.915-150.345-306.099-149.689-306.264-149.106-306.424-148.518-306.583-147.929-306.743-147.34-306.896-146.752-307.049-146.163-307.227-145.47-307.405-144.777-307.571-144.084-307.742-143.385-307.908-142.692-308.067-141.993-308.147-141.649-308.227-141.3-308.306-140.95-308.386-140.601-308.466-140.251-308.539-139.896-309.496-135.523-310.287-131.084-310.9-126.595-310.968-126.129-311.029-125.663-311.084-125.197-311.189-124.418-311.281-123.639-311.372-122.854-311.452-122.161-311.526-121.468-311.599-120.775-311.642-120.358-311.685-119.941-311.722-119.518-311.808-118.66-311.882-117.795-311.949-116.93-311.973-116.654-311.998-116.372-312.016-116.096-312.078-115.317-312.133-114.533-312.176-113.748-312.225-112.969-312.268-112.184-312.305-111.399-312.335-110.804-312.366-110.203-312.384-109.602-312.403-109.124-312.421-108.646-312.433-108.167-312.446-107.842-312.452-107.523-312.458-107.198-312.47-106.873-312.476-106.554-312.476-106.229-312.501-105.126-312.513-104.022-312.513-102.918-312.513-101.538-312.495-100.165-312.464-98.791-312.452-98.257-312.433-97.724-312.415-97.197-312.391-96.356-312.36-95.516-312.317-94.682-312.311-94.462-312.298-94.247-312.286-94.032-312.231-92.886-312.157-91.739-312.078-90.598-312.035-89.997-311.992-89.402-311.943-88.814-311.894-88.219-311.845-87.624-311.789-87.035-311.698-86.036-311.599-85.036-311.489-84.043-311.44-83.565-311.385-83.08-311.323-82.602-311.311-82.479-311.299-82.35-311.281-82.228-311.207-81.602-311.133-80.983-311.047-80.363-310.968-79.744-310.888-79.125-310.796-78.512-310.704-77.843-310.606-77.181-310.502-76.519-310.373-75.678-310.238-74.838-310.097-73.998-309.95-73.127-309.796-72.263-309.637-71.404-309.508-70.674-309.367-69.945-309.22-69.221-309.183-69.025-309.147-68.835-309.104-68.645-308.963-67.933-308.815-67.222-308.662-66.511-308.546-65.959-308.423-65.401-308.294-64.849-308.098-63.966-307.889-63.083-307.675-62.2-307.571-61.752-307.46-61.298-307.344-60.851-307.203-60.28-307.055-59.71-306.908-59.14-306.7-58.349-306.491-57.558-306.27-56.773-306.24-56.656-306.209-56.54-306.172-56.429-305.952-55.607-305.712-54.798-305.473-53.982-305.473-53.97-305.467-53.958-305.461-53.94-305.228-53.155-304.989-52.37-304.75-51.591-304.701-51.431-304.652-51.266-304.596-51.1-304.363-50.358-304.124-49.629-303.885-48.893-303.75-48.47-303.609-48.04-303.462-47.617-303.198-46.832-302.922-46.047-302.646-45.268-302.37-44.49-302.088-43.711-301.8-42.938-301.598-42.386-301.389-41.841-301.181-41.289-301.015-40.841-300.837-40.387-300.659-39.94-300.451-39.4-300.236-38.854-300.016-38.314-299.905-38.032-299.789-37.75-299.672-37.468-299.556-37.186-299.439-36.904-299.323-36.622-299.071-36.021-298.82-35.42-298.562-34.825-298.231-34.053-297.894-33.292-297.556-32.526-297.066-31.428-296.563-30.33-296.048-29.245-295.821-28.754-295.588-28.27-295.349-27.785-295.159-27.387-294.969-26.994-294.766-26.596-294.582-26.215-294.392-25.835-294.202-25.455-293.987-25.026-293.773-24.603-293.552-24.173-292.982-23.057-292.399-21.954-291.804-20.856-291.67-20.598-291.529-20.347-291.388-20.089-290.909-19.2-290.412-18.317-289.91-17.44-289.591-16.876-289.266-16.318-288.941-15.76-288.616-15.202-288.285-14.65-287.953-14.098-287.628-13.558-287.303-13.025-286.972-12.485-286.635-11.921-286.285-11.363-285.93-10.805-285.586-10.259-285.237-9.714-284.887-9.174-284.538-8.634-284.188-8.095-283.833-7.561-283.477-7.021-283.115-6.488-282.753-5.954-282.422-5.47-282.091-4.986-281.76-4.507-281.429-4.023-281.091-3.544-280.754-3.066-280.319-2.447-279.877-1.834-279.43-1.22-279.055-.699-278.675-.184-278.289 .331-277.902 .846-277.516 1.361-277.124 1.87-276.737 2.379-276.345 2.888-275.952 3.397-275.56 3.906-275.161 4.415-274.757 4.912-274.358 5.415-273.959 5.912-273.549 6.408-273.144 6.905-272.733 7.402-272.322 7.892-271.948 8.346-271.562 8.794-271.188 9.241-270.323 10.259-269.446 11.271-268.551 12.265V-107.382C-268.551-107.382-271.764-207.823-184.821-270.078-185.293-269.955-185.765-269.82-186.231-269.691-186.286-269.673-186.342-269.661-186.397-269.642M-239.729 38.143C-239.49 38.308-239.251 38.48-239.012 38.646-238.398 39.087-237.779 39.516-237.154 39.94-236.528 40.369-235.903 40.792-235.277 41.215-234.652 41.638-234.014 42.055-233.382 42.466-232.751 42.877-232.113 43.288-231.469 43.686-230.911 44.042-230.353 44.392-229.789 44.735-229.593 44.858-229.39 44.98-229.194 45.103-228.016 45.82-226.833 46.526-225.637 47.212-224.981 47.593-224.325 47.967-223.663 48.335-223.337 48.519-223.013 48.703-222.681 48.88-222.05 49.23-221.418 49.573-220.78 49.911-220.333 50.156-219.885 50.395-219.437 50.622-219.352 50.671-219.266 50.714-219.186 50.757-218.744 50.984-218.303 51.217-217.855 51.444-216.022 52.388-214.164 53.29-212.293 54.166-211.766 54.412-211.239 54.657-210.705 54.896-210.19 55.135-209.669 55.368-209.147 55.595-208.504 55.883-207.854 56.166-207.203 56.441-206.744 56.638-206.29 56.834-205.83 57.024-204.775 57.466-203.72 57.895-202.659 58.312-199.667 59.495-196.638 60.593-193.565 61.605-193.05 61.777-192.541 61.942-192.026 62.108-191.511 62.273-190.996 62.439-190.481 62.592-189.328 62.954-188.169 63.303-186.998 63.635-186.231 63.855-185.465 64.07-184.698 64.279-183.588 64.585-182.472 64.873-181.344 65.155-180.982 65.247-180.614 65.339-180.246 65.425-178.817 65.775-177.376 66.106-175.929 66.419-175.622 66.486-175.31 66.554-175.003 66.615-174.114 66.805-173.225 66.983-172.329 67.155-171.826 67.259-171.318 67.351-170.808 67.443-170.471 67.51-170.14 67.572-169.803 67.627-169.251 67.731-168.699 67.823-168.141 67.915-167.644 68.001-167.148 68.081-166.645 68.16-165.811 68.295-164.977 68.424-164.136 68.54-163.437 68.645-162.738 68.743-162.033 68.829-161.892 68.853-161.745 68.872-161.598 68.89-160.758 69-159.911 69.105-159.065 69.197-158.397 69.276-157.722 69.35-157.048 69.417-156.502 69.473-155.95 69.528-155.404 69.577-155.288 69.589-155.171 69.601-155.055 69.607-154.104 69.699-153.147 69.779-152.191 69.847-151.749 69.877-151.308 69.914-150.866 69.939-150.584 69.957-150.302 69.975-150.02 69.994-149.646 70.018-149.278 70.037-148.904 70.055-148.37 70.086-147.843 70.11-147.31 70.135-146.776 70.166-146.249 70.184-145.715 70.202-145.261 70.221-144.808 70.239-144.354 70.251-143.9 70.264-143.44 70.276-142.986 70.288-141.754 70.313-140.509 70.325-139.27 70.325-138.645 70.325-138.019 70.319-137.394 70.313-136.768 70.307-136.143 70.3-135.523 70.282-134.965 70.276-134.413 70.258-133.861 70.239-132.549 70.202-131.243 70.147-129.937 70.074-129.569 70.055-129.201 70.037-128.839 70.012-128.741 70.006-128.643 70-128.545 69.994-128.312 69.982-128.085 69.969-127.852 69.951-127.619 69.939-127.386 69.92-127.153 69.902-126.754 69.877-126.356 69.847-125.957 69.816-125.123 69.755-124.295 69.687-123.467 69.607-122.964 69.565-122.468 69.516-121.971 69.466-121.033 69.374-120.088 69.27-119.15 69.16-118.764 69.117-118.378 69.074-117.997 69.019-117.323 68.945-116.648 68.853-115.98 68.761-115.397 68.682-114.808 68.602-114.226 68.516-113.619 68.43-113.012 68.338-112.405 68.24-111.994 68.179-111.577 68.111-111.166 68.044-110.497 67.939-109.835 67.823-109.173 67.706-108.272 67.547-107.376 67.381-106.481 67.21-105.966 67.112-105.444 67.007-104.929 66.903-104.537 66.823-104.145 66.744-103.752 66.658-103.654 66.646-103.556 66.621-103.458 66.597-102.93 66.492-102.403 66.376-101.876 66.259-101.784 66.241-101.692 66.222-101.606 66.198-101.219 66.112-100.833 66.026-100.453 65.934-100.324 65.91-100.195 65.879-100.066 65.848-99.791 65.787-99.508 65.72-99.233 65.652-98.957 65.591-98.681 65.523-98.398 65.45-97.859 65.321-97.325 65.192-96.792 65.051-96.602 65.008-96.418 64.959-96.234 64.91-95.602 64.751-94.971 64.585-94.339 64.413-93.677 64.236-93.014 64.052-92.352 63.868-90.782 63.426-89.225 62.966-87.673 62.476-87.262 62.353-86.857 62.218-86.447 62.089-85.797 61.881-85.153 61.672-84.503 61.452-84.055 61.304-83.608 61.151-83.166 60.998-82.32 60.71-81.48 60.415-80.639 60.109-79.996 59.876-79.358 59.643-78.72 59.403-78.162 59.201-77.61 58.986-77.058 58.772-76.427 58.526-75.801 58.281-75.176 58.03-73.955 57.545-72.741 57.042-71.533 56.527-71.19 56.386-70.846 56.239-70.503 56.086-70.012 55.871-69.522 55.657-69.031 55.442-64.138 53.259-59.367 50.861-54.724 48.255-53.7 47.685-52.689 47.102-51.683 46.507-49.665 45.318-47.672 44.091-45.71 42.828-45.078 42.423-44.453 42.012-43.827 41.595-43.294 41.246-42.76 40.89-42.233 40.528-40.945 39.657-39.67 38.768-38.413 37.861-38.094 37.634-37.775 37.401-37.462 37.174-37.008 36.843-36.561 36.512-36.113 36.18-36.064 36.144-36.015 36.107-35.966 36.07H-242.568C-241.63 36.769-240.68 37.456-239.729 38.143M-212.434-239.833C-228.329-222.442-240.9-202.108-249.798-179.406-265.019-140.582-264.209-107.842-264.203-107.523L-264.197-107.45V12.804 31.716H-241.722-30.361-14.343V16.986-107.45L-14.337-107.523C-14.331-107.842-13.479-140.288-28.613-179.075-37.493-201.838-50.052-222.228-65.953-239.668-77.469-252.3-90.77-263.412-105.727-272.899-116.121-279.503-127.318-285.329-139.27-290.339-151.222-285.329-162.426-279.509-172.82-272.899-187.709-263.449-200.955-252.398-212.434-239.833M-76.168-264.258C-76.123-264.24-76.077-264.223-76.031-264.205-76.076-264.223-76.12-264.241-76.164-264.258-76.166-264.259-76.167-264.258-76.168-264.258M-9.99 36.07H-28.84C-59.176 60.231-97.565 74.679-139.27 74.679-180.982 74.679-219.37 60.225-249.712 36.07H-268.551V18.71C-298.495-13.092-316.867-55.896-316.867-102.918-316.867-188.788-255.612-260.609-174.506-277.001-163.983-283.63-152.277-289.713-139.27-295.055-126.251-289.713-114.545-283.624-104.016-276.989-22.923-260.591 38.333-188.776 38.333-102.918 38.333-55.89 19.954-13.086-9.99 18.716Z" fill="#e52d16"/>
<path transform="matrix(1,0,0,-1,111.0857,297.47544)" d="M0 0C-.613 1.478-1.404 2.747-2.386 3.82L-11.001 2.993-10.578-1.496-4.354-.901C-3.643-1.975-3.213-3.226-3.078-4.636-2.95-5.973-3.128-7.187-3.606-8.285-4.078-9.382-4.808-10.272-5.783-10.958-6.758-11.645-7.905-12.05-9.217-12.173-10.554-12.301-11.768-12.124-12.853-11.633-13.939-11.148-14.816-10.4-15.484-9.407-16.152-8.407-16.551-7.23-16.68-5.875-16.882-3.728-16.257-1.821-14.803-.153L-18.023 2.723C-19.114 1.576-19.899 .221-20.384-1.361-20.868-2.937-21.021-4.654-20.844-6.519-20.629-8.745-19.973-10.701-18.857-12.387-17.747-14.08-16.312-15.343-14.546-16.189-12.78-17.029-10.848-17.354-8.745-17.152-6.641-16.95-4.802-16.269-3.226-15.11-1.656-13.945-.484-12.442 .294-10.597 1.067-8.745 1.343-6.715 1.134-4.513 .987-2.974 .607-1.472 0 0" fill="#e52d16"/>
<path transform="matrix(1,0,0,-1,112.2139,261.93284)" d="M0 0-4.01 .288-4.771-10.382-22.039-9.149-22.395-14.074-1.11-15.594Z" fill="#e52d16"/>
<path transform="matrix(1,0,0,-1,112.9438,237.37912)" d="M0 0C-.294-1.226-.846-2.263-1.65-3.115-2.453-3.961-3.428-4.55-4.569-4.863-5.715-5.182-6.93-5.188-8.211-4.875-9.493-4.562-10.572-4.004-11.443-3.195-12.308-2.385-12.908-1.423-13.227-.294-13.552 .828-13.565 1.999-13.264 3.226-12.964 4.452-12.418 5.488-11.615 6.341-10.811 7.187-9.836 7.77-8.696 8.088-7.549 8.407-6.335 8.407-5.053 8.101-3.771 7.788-2.692 7.224-1.821 6.414-.957 5.611-.356 4.642-.037 3.52 .288 2.398 .3 1.22 0 0M1.263 10.137C-.129 11.523-1.84 12.461-3.87 12.958-5.905 13.448-7.855 13.399-9.726 12.81-11.596 12.222-13.203 11.179-14.552 9.683-15.895 8.193-16.827 6.371-17.354 4.219-17.876 2.067-17.888 .018-17.379-1.938-16.87-3.894-15.919-5.556-14.527-6.93-13.135-8.303-11.425-9.235-9.395-9.732-7.359-10.229-5.409-10.18-3.538-9.603-1.674-9.021-.068-7.978 1.282-6.476 2.631-4.973 3.563-3.146 4.09-1 4.611 1.153 4.617 3.201 4.109 5.145 3.6 7.089 2.649 8.751 1.263 10.137" fill="#e52d16"/>
<path transform="matrix(1,0,0,-1,125.4904,201.57892)" d="M0 0-2.355-5.255-7.169-3.097-4.808 2.159C-3.735 4.55-2.392 5.384-.779 4.661 .037 4.293 .503 3.722 .619 2.95 .742 2.171 .533 1.19 0 0M-8.438 2.858-10.449-1.619-15.036 .435-13.025 4.918C-12.528 6.028-11.958 6.788-11.32 7.187-10.682 7.592-9.983 7.629-9.223 7.285-8.463 6.942-8.021 6.396-7.886 5.648-7.757 4.9-7.941 3.968-8.438 2.858M4.771 5.225C4.446 6.966 3.434 8.217 1.729 8.984 .527 9.523-.632 9.664-1.742 9.401-2.852 9.143-3.827 8.536-4.679 7.586-4.74 8.591-5.041 9.487-5.58 10.272-6.114 11.063-6.856 11.67-7.8 12.093-9.358 12.792-10.879 12.706-12.357 11.848-13.834 10.983-15.104 9.37-16.171 6.997L-20.439-2.514-.975-11.253 3.544-1.19C4.685 1.349 5.09 3.489 4.771 5.225" fill="#e52d16"/>
<path transform="matrix(1,0,0,-1,131.5428,165.07962)" d="M0 0 8.653-1.827 4.826-7.408ZM9.726-14.981 7.021-10.836 12.62-2.661 17.465-3.692 20.39 .583-2.6 4.777-5.36 .754 6.862-19.151Z" fill="#e52d16"/>
<path transform="matrix(1,0,0,-1,171.7093,142.97891)" d="M0 0-2.901 2.79-10.321-4.918-22.787 7.095-26.215 3.538-10.848-11.265Z" fill="#e52d16"/>
<path transform="matrix(1,0,0,-1,192.5651,111.77173)" d="M0 0C1.073-.343 2.159-.417 3.244-.208 4.329 0 5.666 .362 7.255 .877 8.285 1.22 9.119 1.459 9.75 1.613 10.388 1.76 10.965 1.791 11.473 1.711 11.989 1.631 12.375 1.374 12.639 .938 13.001 .35 13.001-.3 12.645-1.006 12.283-1.711 11.51-2.422 10.308-3.152 9.229-3.808 8.052-4.286 6.764-4.593 5.476-4.9 4.268-5.004 3.134-4.906L3.637-8.953C4.832-9.082 6.218-8.935 7.806-8.512 9.389-8.082 10.897-7.432 12.338-6.555 14.006-5.544 15.269-4.427 16.128-3.219 16.987-2.011 17.446-.797 17.502 .417 17.563 1.631 17.275 2.76 16.643 3.796 15.907 5.016 15 5.783 13.939 6.114 12.866 6.439 11.792 6.5 10.707 6.292 9.622 6.083 8.285 5.721 6.696 5.206 5.176 4.691 3.998 4.385 3.164 4.293 2.33 4.201 1.717 4.47 1.343 5.096 .963 5.721 .938 6.396 1.269 7.12 1.601 7.843 2.361 8.567 3.538 9.284 5.225 10.308 7.199 10.854 9.468 10.922L8.818 14.914C7.671 14.932 6.457 14.742 5.176 14.343 3.894 13.945 2.674 13.393 1.509 12.688-.159 11.676-1.417 10.566-2.263 9.358-3.115 8.15-3.563 6.948-3.618 5.74-3.667 4.532-3.367 3.397-2.729 2.336-1.987 1.122-1.079 .343 0 0" fill="#e52d16"/>
<path transform="matrix(1,0,0,-1,227.5069,87.34073)" d="M0 0C1.374 .552 2.545 .675 3.496 .368 4.452 .061 5.157-.65 5.599-1.76 6.04-2.858 6.016-3.845 5.537-4.722 5.059-5.605 4.133-6.322 2.76-6.874L-.981-8.371-3.734-1.496ZM2.711-17.563 .521-12.105 4.507-10.505C6.261-9.799 7.671-8.904 8.732-7.813 9.793-6.715 10.456-5.488 10.719-4.127 10.983-2.76 10.824-1.355 10.241 .098 9.652 1.57 8.788 2.704 7.659 3.502 6.531 4.293 5.206 4.728 3.679 4.795 2.152 4.857 .509 4.538-1.239 3.839L-9.812 .399-1.877-19.403Z" fill="#e52d16"/>
<path transform="matrix(1,0,0,-1,258.8858,80.66882)" d="M0 0C.356 1.134 .981 2.079 1.858 2.852 2.741 3.618 3.796 4.127 5.035 4.378 6.267 4.63 7.438 4.575 8.548 4.207 9.664 3.839 10.603 3.207 11.381 2.306 12.154 1.404 12.669 .307 12.933-.987 13.197-2.281 13.141-3.495 12.78-4.624 12.418-5.758 11.798-6.709 10.915-7.475 10.038-8.242 8.978-8.751 7.745-9.002 6.512-9.254 5.335-9.198 4.225-8.83 3.115-8.463 2.177-7.831 1.398-6.929 .625-6.028 .11-4.93-.153-3.636-.417-2.343-.368-1.128 0 0M-2.453-9.873C-1.135-11.314 .491-12.326 2.422-12.915 4.36-13.497 6.408-13.565 8.579-13.129 10.75-12.688 12.608-11.823 14.147-10.535 15.692-9.254 16.796-7.684 17.459-5.838 18.121-3.992 18.244-2.048 17.833 .006 17.416 2.054 16.545 3.802 15.214 5.243 13.883 6.684 12.258 7.696 10.339 8.285 8.413 8.867 6.365 8.941 4.201 8.499 2.03 8.064 .165 7.199-1.386 5.905-2.937 4.618-4.041 3.054-4.697 1.208-5.347-.632-5.47-2.582-5.053-4.63-4.636-6.684-3.771-8.426-2.453-9.873" fill="#e52d16"/>
<path transform="matrix(1,0,0,-1,302.4004,72.30441)" d="M0 0C1.484 .025 2.618-.276 3.397-.901 4.182-1.527 4.587-2.441 4.605-3.636 4.624-4.814 4.256-5.734 3.495-6.402 2.735-7.064 1.613-7.408 .129-7.432L-3.894-7.506-4.023-.067ZM-3.722-17.379-3.82-11.437 .472-11.363 .717-11.357 4.937-17.226 10.235-17.134 5.335-10.364C6.721-9.726 7.794-8.83 8.53-7.671 9.272-6.506 9.634-5.133 9.603-3.551 9.579-1.968 9.174-.601 8.407 .546 7.635 1.692 6.543 2.563 5.145 3.17 3.741 3.777 2.097 4.06 .202 4.029L-9.033 3.869-8.659-17.465Z" fill="#e52d16"/>
<path transform="matrix(1,0,0,-1,331.5349,91.28381)" d="M0 0 4.887-.711 7.389 16.416 14.147 15.429 14.724 19.415-3.673 22.101-4.256 18.121 2.502 17.134Z" fill="#e52d16"/>
<path transform="matrix(1,0,0,-1,358.8297,96.51462)" d="M0 0C1.374-.901 2.864-1.594 4.477-2.091 6.341-2.668 8.009-2.876 9.48-2.71 10.958-2.551 12.166-2.085 13.117-1.325 14.061-.564 14.717 .399 15.073 1.564 15.49 2.925 15.472 4.109 15.006 5.127 14.54 6.138 13.871 6.985 12.994 7.659 12.117 8.328 10.958 9.088 9.523 9.94 8.125 10.731 7.12 11.406 6.494 11.97 5.869 12.534 5.666 13.166 5.881 13.865 6.095 14.564 6.586 15.03 7.346 15.263 8.113 15.496 9.155 15.41 10.474 15.006 12.356 14.423 14.074 13.307 15.631 11.664L18.188 14.797C17.44 15.662 16.49 16.447 15.343 17.14 14.196 17.833 12.97 18.378 11.67 18.783 9.806 19.353 8.138 19.562 6.672 19.396 5.206 19.231 4.01 18.765 3.072 17.998 2.134 17.238 1.484 16.263 1.116 15.079 .699 13.718 .717 12.522 1.177 11.486 1.637 10.456 2.3 9.597 3.183 8.922 4.06 8.248 5.212 7.494 6.653 6.641 7.592 6.102 8.328 5.636 8.861 5.262 9.395 4.887 9.799 4.477 10.081 4.041 10.357 3.606 10.425 3.146 10.278 2.655 10.075 1.999 9.585 1.57 8.824 1.368 8.064 1.165 7.009 1.269 5.672 1.686 4.464 2.054 3.324 2.618 2.238 3.379 1.153 4.139 .27 4.973-.405 5.881L-3.103 2.821C-2.404 1.84-1.367 .901 0 0" fill="#e52d16"/>
<path transform="matrix(1,0,0,-1,420.3977,106.70651)" d="M0 0-1.582-8.702-7.267-5.035ZM-10.633-7.328-2.306-12.694-3.189-17.557 1.165-20.365 4.697 2.741 .595 5.378-18.949-7.414-14.693-10.149Z" fill="#e52d16"/>
<path transform="matrix(1,0,0,-1,439.095,142.61093)" d="M0 0C1.355-1.251 2.809-2.152 4.354-2.698 5.899-3.238 7.463-3.403 9.051-3.183L8.714 1.116C6.506 .859 4.624 1.453 3.054 2.901 2.085 3.802 1.417 4.814 1.049 5.942 .681 7.071 .638 8.211 .914 9.364 1.196 10.523 1.785 11.584 2.68 12.553 3.575 13.522 4.587 14.19 5.715 14.558 6.844 14.926 7.984 14.969 9.143 14.693 10.296 14.417 11.357 13.828 12.326 12.933 13.89 11.48 14.638 9.652 14.57 7.451H18.881C18.961 9.033 18.679 10.572 18.023 12.062 17.367 13.552 16.361 14.926 15 16.183 13.393 17.673 11.621 18.667 9.689 19.17 7.757 19.666 5.85 19.642 3.974 19.096 2.097 18.55 .441 17.495-.993 15.944-2.428 14.392-3.342 12.663-3.741 10.75-4.145 8.837-4.023 6.936-3.367 5.047-2.723 3.158-1.6 1.478 0 0" fill="#e52d16"/>
<path transform="matrix(1,0,0,-1,473.9202,156.12644)" d="M0 0-4.44-7.647-8.548-2.269ZM-17.268-4.556-12.485-3.287-6.476-11.155-8.959-15.435-5.82-19.55 5.347 .981 2.392 4.857-20.341-.534Z" fill="#e52d16"/>
<path transform="matrix(1,0,0,-1,492.133,197.04102)" d="M0 0C-1.809-.92-3.532-1.085-5.169-.491-6.801 .098-8.107 1.343-9.076 3.244L-11.124 7.267 .668 13.27 2.717 9.254C3.686 7.353 3.925 5.562 3.44 3.894 2.962 2.22 1.815 .926 0 0M6.598-.589C7.58 1.018 8.064 2.815 8.046 4.802 8.027 6.782 7.487 8.812 6.439 10.873L2.036 19.513-16.974 9.824-12.577 1.19C-11.523-.877-10.204-2.496-8.604-3.679-7.009-4.863-5.274-5.531-3.397-5.678-1.521-5.832 .368-5.421 2.269-4.452 4.17-3.483 5.611-2.195 6.598-.589" fill="#e52d16"/>
<path transform="matrix(1,0,0,-1,495.4445,223.91272)" d="M0 0 4.722 1.441 7.616-8.033 11.289-6.911 8.395 2.563 12.829 3.912 16.103-6.813 19.893-5.654 15.183 9.763-5.225 3.532-.399-12.265 3.391-11.106Z" fill="#e52d16"/>
<path transform="matrix(1,0,0,-1,501.8589,261.58323)" d="M0 0 .239-2.214 11.412-7.291-1.306-8.732-.791-13.338 20.408-10.922 19.96-6.899 5.918-.54 18.213 8.861 17.759 12.915-3.446 10.566-2.931 5.961 9.517 7.34Z" fill="#e52d16"/>
<path transform="matrix(1,0,0,-1,522.4448,289.90214)" d="M0 0-14.3-7.199-21.898-6.623-22.272-11.547-14.73-12.117-1.625-21.426-1.257-16.594-10.278-10.192-.392-5.225Z" fill="#e52d16"/>
<path transform="matrix(1,0,0,-1,448.3364,440.44953)" d="M0 0-5.734-5.188-9.125 4.329ZM-14.883 6.592-6.586-18.777-2.3-14.901-4.201-9.579 4.195-1.981 9.303-4.409 13.693-.435-10.75 10.333Z" fill="#e52d16"/>
<path transform="matrix(1,0,0,-1,417.1966,470.33213)" d="M0 0-10.499 16.772-15.282 13.773-2.336-6.893 12.804 2.594 10.363 6.488Z" fill="#e52d16"/>
<path transform="matrix(1,0,0,-1,380.0104,483.20375)" d="M0 0 .098 10.106 7.175 2.888ZM-4.519 14.215-5.5-12.461-.135-10.302-.08-4.648 10.419-.423 14.374-4.464 19.869-2.251 .65 16.3Z" fill="#e52d16"/>
<path transform="matrix(1,0,0,-1,348.4967,477.39033)" d="M0 0-6.181-16.496-17.833-3.183-22.426-4.004-18.139-28.006-12.927-27.08-15.447-12.982-6.353-23.284-3.851-22.837 1.098-9.714 3.704-24.112 8.916-23.18 4.562 .809Z" fill="#e52d16"/>
<path transform="matrix(1,0,0,-1,297.8012,496.14903)" d="M0 0 11.32-.227 11.406 4.158 .086 4.391 .196 9.683 13.013 9.425 13.105 13.951-5.323 14.325-5.813-10.057 13.068-10.437 13.154-5.911-.117-5.642Z" fill="#e52d16"/>
<path transform="matrix(1,0,0,-1,257.555,481.1126)" d="M0 0 7.659-1.466 3.937-20.899 9.48-21.96 13.203-2.533 20.868-3.998 21.733 .515 .865 4.513Z" fill="#e52d16"/>
<path transform="matrix(1,0,0,-1,226.955,481.68293)" d="M0 0 6.96 7.328 7.224-2.772ZM6.378 13.485-12.516-5.378-7.113-7.451-3.226-3.348 7.34-7.408 7.481-13.062 13.013-15.184 11.578 11.486Z" fill="#e52d16"/>
<path transform="matrix(1,0,0,-1,200.1877,466.9103)" d="M0 0C-1.196-1.913-2.465-3.072-3.808-3.477-5.157-3.882-6.58-3.612-8.076-2.68-11.149-.76-11.529 2.048-9.223 5.752L-2.097 17.158-6.887 20.145-14.117 8.561C-16.011 5.531-16.643 2.68-16.024 .025-15.398-2.643-13.608-4.894-10.652-6.739-7.696-8.585-4.888-9.205-2.22-8.591 .442-7.984 2.723-6.163 4.617-3.134L11.847 8.456 7.119 11.406Z" fill="#e52d16"/>
<path transform="matrix(1,0,0,-1,174.3339,430.53984)" d="M0 0C-1.87 1.735-3.918 2.907-6.157 3.508-8.383 4.115-10.572 4.102-12.718 3.483-14.871 2.864-16.766 1.668-18.409-.098-20.053-1.87-21.107-3.845-21.573-6.028-22.033-8.217-21.892-10.394-21.15-12.559-20.408-14.724-19.108-16.674-17.256-18.397-15.962-19.599-14.497-20.598-12.859-21.395-11.222-22.187-9.572-22.671-7.923-22.843L-1.19-15.594-4.961-12.087-9.824-17.318C-11.253-16.937-12.559-16.195-13.749-15.092-14.871-14.049-15.643-12.872-16.073-11.578-16.496-10.278-16.551-8.965-16.238-7.641-15.926-6.31-15.257-5.096-14.227-3.992-13.184-2.87-12.007-2.103-10.707-1.692-9.407-1.288-8.095-1.257-6.77-1.601-5.445-1.95-4.207-2.649-3.072-3.71-1.269-5.39-.356-7.494-.331-10.02L4.599-10.039C4.667-8.23 4.311-6.47 3.526-4.753 2.741-3.042 1.564-1.459 0 0" fill="#e52d16"/>
<path transform="matrix(1,0,0,-1,233.4613,188.07563)" d="M0 0C-1.306 .484-2.956 .938-4.949 1.361-6.721 1.735-8.003 2.097-8.8 2.447-9.597 2.796-9.989 3.318-9.989 4.017-9.989 4.71-9.658 5.28-8.984 5.715-8.309 6.151-7.242 6.371-5.77 6.371-3.428 6.371-1.012 5.697 1.478 4.354L3.759 9.842C2.484 10.59 1.018 11.155-.65 11.547-2.324 11.927-4.017 12.124-5.734 12.124-8.248 12.124-10.376 11.749-12.105 11.001-13.834 10.253-15.141 9.241-16.005 7.96-16.882 6.672-17.317 5.237-17.317 3.643-17.317 1.821-16.845 .38-15.895-.693-14.95-1.766-13.816-2.539-12.498-3.029-11.173-3.514-9.536-3.968-7.567-4.391-5.77-4.789-4.47-5.17-3.661-5.531-2.851-5.893-2.447-6.445-2.447-7.193-2.447-8.616-3.863-9.321-6.703-9.321-8.199-9.321-9.72-9.088-11.265-8.616-12.81-8.138-14.165-7.518-15.337-6.746L-17.765-12.197C-16.52-13.074-14.901-13.767-12.908-14.294-10.915-14.816-8.861-15.079-6.739-15.079-4.25-15.079-2.134-14.699-.392-13.939 1.355-13.178 2.661-12.16 3.532-10.891 4.403-9.622 4.838-8.205 4.838-6.635 4.838-4.814 4.36-3.379 3.403-2.318 2.441-1.257 1.312-.484 0 0" fill="#e52d16"/>
<path transform="matrix(1,0,0,-1,251.5638,185.64731)" d="M0 0C.626 1.134 1.472 2.011 2.545 2.631 3.612 3.256 4.808 3.569 6.126 3.569 7.451 3.569 8.647 3.256 9.714 2.631 10.787 2.011 11.633 1.134 12.259 0 12.878-1.134 13.191-2.435 13.191-3.906 13.191-5.378 12.878-6.678 12.259-7.812 11.633-8.941 10.787-9.824 9.714-10.443 8.647-11.069 7.451-11.375 6.126-11.375 4.808-11.375 3.612-11.069 2.545-10.443 1.472-9.824 .626-8.941 0-7.812-.619-6.678-.932-5.378-.932-3.906-.932-2.435-.619-1.134 0 0M-1.325-15.748C.877-16.919 3.367-17.508 6.126-17.508 8.892-17.508 11.382-16.919 13.583-15.748 15.791-14.576 17.52-12.957 18.777-10.891 20.034-8.824 20.666-6.494 20.666-3.906 20.666-1.312 20.034 1.012 18.777 3.085 17.52 5.151 15.791 6.77 13.583 7.935 11.382 9.106 8.892 9.695 6.126 9.695 3.367 9.695 .877 9.106-1.325 7.935-3.532 6.77-5.261 5.151-6.519 3.085-7.776 1.012-8.407-1.312-8.407-3.906-8.407-6.494-7.776-8.824-6.519-10.891-5.261-12.957-3.532-14.576-1.325-15.748" fill="#e52d16"/>
<path transform="matrix(1,0,0,-1,275.725,372.98835)" d="M0 0C-.515-.521-1.061-.987-1.637-1.398-1.736-.638-1.901 .104-2.128 .834L1.122 6.905C2.024 7.316 2.888 7.776 3.685 8.352 3.796 8.426 3.882 8.512 3.949 8.604 3.71 5.464 2.398 2.392 0 0M-2.98 1.3C-4.679 .981-6.39 .809-8.119 .803L-11.253 6.23C-10.768 7.132-10.284 8.046-9.806 8.953-9.474 9.572-9.155 10.192-8.837 10.817L-2.343 11.48C-1.551 10.314-.797 9.125-.141 7.874-.018 7.641 .098 7.408 .221 7.175L-2.925 1.306C-2.944 1.306-2.962 1.3-2.98 1.3M-10.517-1.895C-10.609-2.018-10.707-2.134-10.805-2.251L-17.305-1.092C-18.066-.166-18.746 .809-19.335 1.852-19.482 2.116-19.654 2.379-19.777 2.655L-17.232 6.641C-17.177 6.629-17.115 6.617-17.042 6.598-15.453 6.169-13.828 5.869-12.197 5.629-12.105 5.617-12.025 5.605-11.958 5.599L-8.904 .325C-9.438-.423-9.971-1.159-10.517-1.895M-16.422-2.183-10.915-3.164C-10.873-3.195-10.83-3.219-10.787-3.244-10.223-3.532-9.64-3.777-9.039-3.974-11.584-4.084-14.153-3.489-16.422-2.183M-20.39 3.416C-20.445 3.446-20.5 3.477-20.549 3.508-21.254 3.949-21.898 4.458-22.469 5.053-23.346 7.512-23.493 10.173-22.91 12.7-22.64 13.233-22.334 13.749-21.978 14.245-21.874 14.399-21.77 14.558-21.659 14.705L-18.372 12.761V12.682C-18.378 10.909-18.201 9.162-17.845 7.432-17.845 7.42-17.839 7.42-17.839 7.408ZM-21.071 15.76C-20.856 16.342-20.641 16.925-20.396 17.495-20.206 17.931-19.991 18.354-19.752 18.771-19.599 18.943-19.439 19.108-19.274 19.274-17.728 20.813-15.907 21.911-13.969 22.555-13.982 22.542-13.988 22.524-14 22.505-13.982 22.493-13.975 22.487-13.963 22.481-12.982 22.144-12.093 21.647-11.253 21.052L-12.896 16.097C-12.908 16.097-12.915 16.097-12.921 16.091-13.258 15.95-13.601 15.827-13.933 15.674-15.3 15.055-16.631 14.368-17.882 13.546L-21.132 15.466C-21.126 15.564-21.107 15.668-21.071 15.76M-9.996 20.88C-9.039 20.972-8.082 21.083-7.12 21.138-6.531 21.175-5.942 21.193-5.347 21.15L-.987 16.238C-1.141 15.766-1.282 15.294-1.46 14.828-1.766 14.012-2.097 13.209-2.422 12.399L-8.751 11.756C-8.824 11.854-8.904 11.952-8.984 12.044-9.732 12.89-10.486 13.73-11.234 14.576-11.228 14.583-11.222 14.589-11.216 14.595-11.516 14.901-11.823 15.202-12.124 15.502L-10.364 20.807C-10.241 20.837-10.118 20.862-9.996 20.88M-4.477 22.254C-2.845 21.592-1.319 20.598 0 19.274 1.202 18.072 2.134 16.698 2.79 15.233 1.981 15.797 1.11 16.257 .196 16.631 .049 16.692-.092 16.741-.245 16.79L-4.532 21.622C-4.501 21.831-4.489 22.046-4.477 22.254M.656 19.93C-.736 21.316-2.355 22.395-4.158 23.125-5.905 23.83-7.745 24.192-9.634 24.192-11.523 24.192-13.368 23.83-15.11 23.125-16.919 22.395-18.538 21.316-19.924 19.93-21.316 18.538-22.389 16.919-23.125 15.11-23.83 13.368-24.186 11.529-24.186 9.634-24.186 7.745-23.83 5.905-23.125 4.158-22.389 2.355-21.316 .736-19.924-.656-18.538-2.042-16.919-3.121-15.11-3.851-13.368-4.556-11.523-4.918-9.634-4.918-7.745-4.918-5.905-4.556-4.158-3.851-2.355-3.121-.736-2.042 .656-.656 2.048 .736 3.121 2.355 3.851 4.158 4.562 5.905 4.918 7.745 4.918 9.634 4.918 11.529 4.556 13.368 3.851 15.11 3.121 16.919 2.042 18.538 .656 19.93" fill="#e52d16"/>
<path transform="matrix(1,0,0,-1,284.5739,201.41333)" d="M0 0C2.183-1.159 4.642-1.742 7.383-1.742 9.775-1.742 11.927-1.318 13.847-.472 15.76 .374 17.354 1.601 18.63 3.195L13.92 7.451C12.228 5.409 10.174 4.391 7.757 4.391 6.335 4.391 5.071 4.697 3.961 5.323 2.851 5.942 1.993 6.825 1.386 7.954 .773 9.088 .466 10.388 .466 11.86 .466 13.332 .773 14.632 1.386 15.766 1.993 16.901 2.851 17.777 3.961 18.397 5.071 19.022 6.335 19.335 7.757 19.335 10.174 19.335 12.228 18.311 13.92 16.269L18.63 20.531C17.354 22.125 15.76 23.346 13.847 24.192 11.927 25.038 9.775 25.461 7.383 25.461 4.642 25.461 2.183 24.885 0 23.726-2.177 22.567-3.888 20.954-5.139 18.887-6.384 16.815-7.003 14.478-7.003 11.86-7.003 9.247-6.384 6.905-5.139 4.838-3.888 2.766-2.177 1.159 0 0" fill="#e52d16"/>
<path transform="matrix(1,0,0,-1,284.8068,248.57053)" d="M0 0C-3.256-15.846 4.771-27.571 4.771-27.571 4.771-27.571 7.224-26.908 12.59-25.185 18.673-23.229 27.356-20.408 27.356-20.408 27.356-20.408 22.358-19.108 17.802-15.846 13.24-12.59 9.119-5.212 13.46 3.042 17.802 11.29 30.392 9.119 33.648 2.171 36.904-4.777 32.348-11.725 32.348-11.725 39.946-4.992 41.896 6.727 31.042 13.24 21.205 19.145 3.256 15.852 0 0" fill="#e52d16"/>
<path transform="matrix(1,0,0,-1,314.3891,201.41333)" d="M0 0C2.183-1.159 4.642-1.742 7.383-1.742 9.775-1.742 11.927-1.318 13.847-.472 15.76 .374 17.354 1.601 18.63 3.195L13.92 7.451C12.228 5.409 10.173 4.391 7.757 4.391 6.335 4.391 5.071 4.697 3.961 5.323 2.851 5.942 1.993 6.825 1.386 7.954 .773 9.088 .466 10.388 .466 11.86 .466 13.332 .773 14.632 1.386 15.766 1.993 16.901 2.851 17.777 3.961 18.397 5.071 19.022 6.335 19.335 7.757 19.335 10.173 19.335 12.228 18.311 13.92 16.269L18.63 20.531C17.354 22.125 15.76 23.346 13.847 24.192 11.927 25.038 9.775 25.461 7.383 25.461 4.642 25.461 2.183 24.885 0 23.726-2.177 22.567-3.888 20.954-5.133 18.887-6.384 16.815-7.003 14.478-7.003 11.86-7.003 9.247-6.384 6.905-5.133 4.838-3.888 2.766-2.177 1.159 0 0" fill="#e52d16"/>
<path transform="matrix(1,0,0,-1,360.1051,196.91223)" d="M0 0H-13.675V4.783H-2.054V10.315H-13.675V14.717H-.484V20.439H-20.997V-5.715H0Z" fill="#e52d16"/>
<path transform="matrix(1,0,0,-1,292.1841,346.04924)" d="M0 0C2.606 0 3.906-11.296 10.425-25.835 16.833-40.154 26.191-52.37 26.485-52.75 26.215-52.051 9.664-9.726 22.585 22.144 33.335 48.672 44.723 58.398 56.662 61.225 68.289 63.972 81.118 58.98 77.996 48.874 77.782 48.476 77.678 48.218 77.733 48.108 77.727 48.083 77.72 48.059 77.708 48.034L77.861 48.046 77.941 48.053C78.787 48.194 80.051 48.893 81.4 49.941L81.406 49.947C83.264 51.241 85.349 53.179 86.741 55.951 86.747 55.957 86.753 55.969 86.753 55.982 87.14 56.656 87.458 57.337 87.685 58.017 87.967 58.858 88.164 59.931 88.25 61.151 88.256 61.157 88.256 61.163 88.25 61.169 88.556 64.101 88.121 67.608 86.49 71.772 80.431 87.226 60.795 85.104 48.85 83.148 36.91 81.191 23.45 75.764 5.427 70.343-12.59 64.916-24.529 61.875-32.562 64.696-40.596 67.516-46.023 75.335-46.023 75.335-46.023 75.335-44.502 67.081-31.698 60.354-18.887 53.627 .754 60.25 26.271 68.823 53.412 77.941 69.049 76.936 74.47 71.864 81.038 65.713 77.929 59.931 77.929 59.931 77.929 59.931 77.506 63.426 69.258 65.597 61.004 67.768 45.593 66.866 30.398 48.629 15.061 30.226 8.689-1.742 8.689-1.742 8.689-1.742 3.256 10.854-2.386 9.333-7.874 7.855-7.003-1.435-6.954-1.938-7.107-1.558-9.622 4.765-11.94 17.802-14.325 31.262-11.94 43.858-11.94 43.858-11.94 43.858-24.094 47.108-31.262 51.885-38.216 56.521-42.307 63.819-42.546 64.242-42.411 63.825-40.203 57.11-34.733 50.8-29.092 44.287-19.752 39.29-19.752 39.29-19.752 39.29-20.408 29.306-14.975 7.813-8.297-18.636 7.745-32.145 8.242-32.556 8.039-32.25 4.667-27.24 1.3-16.937-2.171-6.298-2.606 0 0 0" fill="#e52d16"/>
<path transform="matrix(1,0,0,-1,374.4178,182.3052)" d="M0 0H4.109C5.629 0 6.77-.337 7.543-1.006 8.315-1.68 8.702-2.625 8.702-3.845 8.702-5.065 8.315-6.01 7.543-6.666 6.77-7.328 5.629-7.659 4.109-7.659H0ZM0-13.374H4.029L8.775-20.322H16.698L11.057-12.105C12.7-11.308 13.963-10.204 14.852-8.8 15.735-7.389 16.177-5.74 16.177-3.845 16.177-1.883 15.705-.166 14.754 1.288 13.81 2.747 12.467 3.869 10.719 4.654 8.978 5.439 6.923 5.832 4.556 5.832H-7.402V-20.322H0Z" fill="#e52d16"/>
</g>
</g>
</svg>
